<?xml version="1.0" standalone="no"?>
<!DOCTYPE svg PUBLIC "-//W3C//DTD SVG 20010904//EN"
 "http://www.w3.org/TR/2001/REC-SVG-20010904/DTD/svg10.dtd">
<svg version="1.0" xmlns="http://www.w3.org/2000/svg"
 width="372.000000pt" height="493.000000pt" viewBox="0 0 372.000000 493.000000"
 preserveAspectRatio="xMidYMid meet">
<metadata>
Created by potrace 1.16, written by Peter Selinger 2001-2019
</metadata>
<g transform="translate(0.000000,493.000000) scale(0.100000,-0.100000)"
fill="#000000" stroke="none">
<path d="M1514 4802 c-12 -9 -27 -34 -34 -54 -6 -21 -14 -37 -18 -37 -25 4
-42 -2 -36 -13 4 -7 3 -8 -4 -4 -17 10 -92 -12 -99 -29 -3 -8 -10 -12 -16 -8
-5 3 -7 2 -4 -4 4 -6 -4 -20 -17 -32 -14 -13 -27 -34 -30 -47 -4 -13 -10 -24
-15 -24 -5 0 -12 -33 -16 -72 -6 -71 -11 -124 -14 -141 0 -5 -5 -5 -11 -2 -5
3 -10 -1 -10 -9 0 -9 5 -16 10 -16 6 0 10 -7 10 -15 0 -9 7 -18 16 -22 8 -3
13 -11 10 -19 -3 -7 -2 -14 2 -16 4 -2 16 -20 26 -40 15 -29 25 -38 45 -38 21
0 23 2 11 11 -12 8 -10 9 8 4 13 -4 28 -2 35 3 7 6 29 13 50 17 37 7 37 7 37
-26 0 -46 -10 -80 -21 -73 -5 3 -9 1 -9 -5 0 -12 -32 -2 -42 12 -12 18 -56
-42 -62 -86 -6 -36 -15 -50 -54 -83 -26 -21 -51 -38 -56 -36 -5 2 -6 -6 -3
-18 3 -11 1 -18 -3 -15 -5 3 -11 -9 -15 -27 -4 -18 -21 -47 -37 -65 -18 -18
-30 -42 -30 -58 0 -18 -13 -36 -41 -60 -22 -19 -46 -35 -53 -35 -6 0 -14 -9
-17 -20 -3 -11 -10 -20 -17 -20 -6 0 -8 6 -4 13 4 7 3 9 -2 4 -5 -5 -10 -13
-10 -18 -1 -5 -2 -13 -3 -19 0 -5 -6 -10 -13 -10 -6 0 -22 -10 -35 -22 -13
-12 -23 -16 -23 -9 0 7 -4 10 -9 7 -5 -3 -11 0 -14 8 -3 8 -19 17 -36 21 -39
8 -146 108 -136 126 5 7 4 10 -3 5 -11 -6 -27 10 -27 29 0 5 -12 16 -27 23
-16 7 -28 21 -28 32 0 10 -4 21 -10 25 -5 3 -7 12 -3 21 3 9 0 14 -8 12 -9 -2
-14 12 -17 45 -3 39 -10 54 -35 78 -18 15 -40 29 -49 29 -25 0 -22 16 4 34 12
9 18 16 13 16 -6 0 -4 4 4 9 20 13 5 41 -21 40 -13 0 -18 -3 -12 -5 12 -5 -57
-84 -74 -84 -7 0 -12 -6 -12 -12 0 -7 -13 -13 -30 -14 -34 -1 -68 -27 -81 -63
-10 -26 13 -123 35 -151 7 -8 12 -35 12 -60 -1 -36 -5 -45 -21 -48 -31 -6
-157 -63 -172 -77 -30 -30 -13 -38 84 -39 12 0 19 -4 17 -8 -3 -4 6 -8 20 -8
19 0 26 5 26 20 0 11 5 20 11 20 5 0 8 -4 4 -10 -3 -6 5 -6 22 0 15 4 49 10
75 13 36 3 45 1 41 -9 -5 -13 -17 -18 -36 -15 -5 1 -7 -4 -4 -11 3 -10 30 -12
108 -10 111 3 132 11 105 37 -9 9 -14 21 -10 26 3 5 0 8 -7 7 -7 -2 -13 4 -14
12 0 8 -5 15 -11 15 -6 0 -26 7 -45 16 -78 38 -89 41 -112 35 -16 -4 -25 -2
-24 7 2 67 -4 107 -18 107 -8 0 -15 5 -15 11 0 5 5 7 11 3 8 -4 8 0 0 15 -7
11 -16 21 -22 21 -6 0 -7 5 -4 10 3 6 3 10 -2 10 -4 0 -8 15 -8 33 0 54 31 47
108 -23 37 -34 67 -68 67 -76 0 -8 7 -17 15 -20 8 -4 15 -12 15 -20 0 -8 3
-14 8 -14 10 0 33 -38 38 -63 2 -11 9 -25 15 -31 9 -8 10 -7 5 4 -4 8 1 4 11
-10 10 -14 30 -38 45 -53 16 -16 25 -33 22 -39 -4 -6 -2 -8 4 -4 6 3 21 -8 33
-26 13 -18 26 -35 29 -38 3 -3 19 -21 35 -40 26 -30 27 -32 5 -16 -14 11 -9 4
10 -15 19 -19 43 -38 53 -42 10 -4 15 -11 12 -17 -4 -6 6 -10 23 -10 18 0 32
6 36 16 4 9 9 14 13 10 3 -3 12 3 20 14 8 11 21 20 29 20 8 0 14 4 14 9 0 11
96 81 110 81 6 0 13 7 16 15 4 8 11 15 18 15 6 0 17 9 24 20 7 11 20 20 30 20
10 0 23 5 30 12 8 8 15 8 26 -2 9 -7 13 -16 10 -21 -3 -5 -1 -9 5 -9 30 0 65
-143 55 -222 -6 -46 -7 -47 -58 -64 -28 -10 -52 -15 -53 -13 -1 2 -9 -5 -18
-16 -9 -11 -13 -13 -9 -5 4 8 -7 2 -24 -14 -17 -16 -31 -32 -30 -35 2 -21 -4
-31 -19 -31 -9 0 -14 -3 -10 -6 3 -3 -3 -22 -13 -41 -10 -20 -24 -57 -31 -84
-7 -27 -16 -49 -21 -49 -11 0 -10 -293 1 -306 4 -5 14 -63 20 -129 7 -66 19
-167 27 -225 8 -58 16 -125 19 -150 3 -25 8 -56 11 -70 3 -14 7 -41 10 -60 3
-19 8 -42 11 -50 4 -8 5 -22 4 -30 -1 -9 8 -60 19 -115 18 -88 40 -138 59
-132 3 0 17 -5 30 -12 13 -7 33 -11 45 -9 21 4 24 -3 46 -94 13 -54 27 -98 32
-98 4 0 8 -5 8 -11 0 -5 -6 -7 -12 -4 -7 4 -5 0 5 -8 10 -9 15 -21 11 -31 -3
-9 -2 -16 4 -16 6 0 8 -10 4 -22 -3 -14 -2 -19 6 -14 12 7 16 -4 12 -38 -1
-12 2 -16 11 -11 8 5 10 4 5 -4 -4 -6 -1 -22 7 -34 18 -27 38 -121 35 -160 -2
-26 -23 -38 -30 -16 -2 6 -40 13 -88 16 l-85 5 -40 -35 c-22 -20 -47 -43 -55
-51 -8 -9 -33 -33 -54 -53 -21 -21 -55 -55 -74 -75 -19 -21 -38 -38 -41 -38
-3 0 -100 -92 -215 -205 -115 -113 -213 -205 -218 -205 -4 0 -8 -9 -8 -20 0
-31 17 -24 77 33 30 28 60 51 65 49 5 -1 7 2 4 7 -7 11 18 33 27 24 4 -3 7 -1
7 5 0 7 7 12 16 12 8 0 13 4 10 9 -6 9 252 269 302 304 17 12 33 27 34 33 2 6
41 45 88 88 95 85 81 82 222 56 l67 -13 5 -41 c12 -95 17 -137 26 -241 22
-244 52 -425 72 -425 5 0 6 -5 3 -10 -4 -6 -2 -17 4 -24 7 -8 11 -18 9 -22 -1
-5 1 -36 5 -69 7 -55 10 -61 33 -63 18 -1 27 5 35 26 6 15 20 45 30 68 12 24
17 48 13 59 -5 13 -4 16 4 11 9 -5 12 9 12 48 0 34 -4 56 -11 56 -7 0 -9 10
-5 24 3 14 2 27 -3 30 -16 10 -70 229 -78 316 -5 47 -7 119 -5 162 l4 76 56
-15 c31 -8 73 -19 93 -25 20 -6 42 -7 48 -4 6 4 11 2 11 -4 0 -8 9 -10 24 -6
13 3 26 2 28 -4 2 -5 29 -11 60 -12 32 -2 58 -7 58 -12 0 -4 11 -6 25 -4 14 3
28 1 31 -3 3 -5 16 -9 29 -9 14 0 60 -7 102 -15 43 -8 137 -23 208 -34 72 -11
148 -23 170 -27 22 -3 78 -12 125 -20 95 -17 127 -22 185 -29 21 -3 45 -11 52
-17 7 -6 22 -8 33 -5 11 3 20 1 20 -5 0 -6 13 -8 30 -6 17 3 30 2 30 -2 0 -8
160 -44 166 -37 3 3 16 -1 30 -8 14 -7 66 -13 119 -14 90 -2 95 -1 95 19 0 11
-3 20 -7 20 -9 0 -187 27 -223 34 -22 5 -164 27 -260 42 -19 3 -66 12 -105 21
-38 8 -81 15 -95 16 -14 1 -27 4 -30 7 -8 9 -218 42 -229 36 -5 -3 -11 -2 -13
2 -2 7 -166 38 -308 58 -14 2 -52 8 -85 14 -33 5 -109 17 -170 25 -123 17
-258 43 -292 56 -23 8 -23 12 -23 165 0 164 -21 343 -45 380 -18 28 -12 350 8
447 10 47 11 67 3 67 -6 0 -5 4 3 9 8 5 12 19 9 35 -3 14 -1 27 3 28 4 2 15
41 23 88 9 47 25 135 35 195 22 119 44 279 43 308 0 9 3 17 9 17 5 0 9 41 9
90 0 50 -4 90 -9 90 -5 0 -11 21 -15 48 -4 30 -15 57 -31 74 -27 29 -34 85
-16 130 29 76 45 108 53 108 5 0 6 5 3 10 -3 6 -2 10 4 10 6 0 15 10 22 21 7
15 8 19 0 15 -7 -5 -9 -1 -5 8 3 9 11 13 17 9 6 -3 7 -1 3 5 -4 6 14 51 39
100 25 49 45 94 45 100 0 22 16 12 46 -28 25 -35 34 -40 72 -41 60 -2 59 -2
84 -24 13 -10 23 -18 23 -16 0 2 12 -3 27 -10 15 -6 25 -17 21 -23 -3 -6 -3
-8 2 -4 4 4 20 1 36 -7 45 -24 72 -19 93 18 11 17 20 34 21 37 4 27 50 130 57
130 6 0 8 7 4 15 -7 19 3 47 15 39 5 -3 6 2 3 10 -3 9 -1 16 6 16 6 0 8 5 5
10 -3 6 -1 10 6 10 6 0 9 8 6 20 -3 11 -1 20 5 20 5 0 6 5 3 10 -3 6 -2 10 4
10 5 0 12 14 16 30 4 17 10 28 15 25 4 -2 10 9 14 25 3 17 12 30 19 30 8 0 14
6 15 13 0 6 3 21 6 32 2 11 5 27 5 35 1 8 16 -11 34 -43 17 -31 40 -66 49 -76
30 -35 19 -59 -35 -77 -31 -10 -66 -34 -98 -65 -27 -27 -46 -49 -42 -49 4 0 1
-6 -8 -13 -13 -10 -48 -95 -55 -134 -1 -7 -14 -44 -29 -83 -39 -102 -34 -136
32 -208 29 -31 53 -60 53 -64 0 -16 26 -7 40 13 8 12 25 33 38 47 12 14 22 32
23 41 0 9 7 -2 15 -25 8 -23 36 -61 65 -89 53 -51 77 -85 59 -85 -5 0 -10 4
-10 9 0 4 -10 7 -22 5 -79 -11 -100 -16 -90 -23 7 -4 -6 -17 -34 -34 -25 -15
-42 -22 -39 -15 4 7 -3 2 -16 -12 -13 -14 -19 -19 -14 -10 9 13 8 13 -7 1 -10
-7 -18 -19 -18 -25 0 -7 -20 -27 -45 -46 -25 -18 -47 -42 -51 -52 -3 -10 -14
-23 -24 -28 -11 -6 -25 -20 -31 -31 -8 -16 -8 -20 1 -14 6 4 2 -12 -10 -34
-12 -25 -25 -39 -32 -35 -6 4 -8 3 -4 -4 3 -6 -1 -17 -9 -25 -11 -12 -12 -17
-2 -20 9 -4 9 -6 -1 -6 -7 -1 -10 -5 -7 -11 3 -5 1 -10 -4 -10 -6 0 -10 -3 -9
-7 1 -8 -32 -88 -57 -136 -8 -16 -15 -35 -15 -43 0 -8 -5 -14 -11 -14 -5 0 -7
-4 -4 -10 3 -5 1 -10 -5 -10 -7 0 -9 -7 -6 -16 3 -8 2 -12 -4 -9 -9 6 -14 -10
-13 -42 1 -7 -3 -10 -8 -7 -8 4 -26 -75 -20 -85 2 -2 -2 -7 -9 -11 -6 -4 -12
-17 -13 -28 -1 -12 -4 -22 -8 -22 -7 0 -32 -74 -32 -95 0 -8 -4 -15 -7 -15 -4
0 -20 -38 -34 -85 -15 -47 -31 -85 -35 -85 -5 0 -12 -7 -15 -16 -3 -8 -2 -12
4 -9 5 3 7 -1 4 -9 -3 -8 -12 -17 -21 -20 -8 -4 -13 -13 -9 -21 3 -8 1 -15 -5
-15 -6 0 -7 -4 -4 -10 3 -5 1 -10 -6 -10 -7 0 -10 -3 -6 -6 3 -3 -3 -15 -13
-27 -11 -11 -17 -23 -15 -27 6 -10 -34 -55 -48 -55 -7 0 -12 -11 -12 -24 0
-33 46 -65 93 -64 20 0 81 1 134 2 54 1 100 6 103 11 3 6 15 10 25 10 10 0 21
6 24 13 6 16 46 -29 46 -53 0 -9 -8 -32 -17 -51 -23 -45 -24 -59 -7 -59 13 0
18 -12 15 -32 0 -5 2 -7 7 -6 7 3 101 -90 96 -95 -2 -1 6 -4 18 -4 12 -1 25
-7 29 -14 4 -6 16 -9 27 -6 12 2 23 0 25 -7 2 -7 30 -11 75 -11 59 0 74 3 87
20 9 11 13 14 9 6 -5 -9 -3 -12 5 -7 6 4 9 11 6 16 -3 5 1 14 8 22 14 14 17
21 17 39 0 6 7 9 15 5 8 -3 15 0 15 5 0 7 9 9 23 5 12 -4 29 -8 37 -10 35 -9
135 -50 140 -57 10 -14 91 -39 127 -39 51 0 66 21 61 81 -3 27 -1 52 3 55 5 3
6 -3 2 -13 -6 -15 -4 -16 8 -6 12 10 18 10 27 1 7 -7 12 -9 12 -6 0 3 21 0 47
-8 67 -20 93 -18 93 7 0 12 -4 18 -11 13 -7 -4 -10 -2 -7 6 2 6 25 13 50 15
69 4 82 22 75 101 -6 76 4 81 59 29 36 -34 85 -47 99 -26 3 5 19 13 36 16 30
7 31 9 25 44 -5 34 -4 37 20 39 14 1 30 4 35 8 11 7 12 101 1 108 -5 3 -12
112 -16 241 -8 279 -41 565 -73 645 -3 8 -5 21 -4 28 1 7 -4 30 -10 50 -7 20
-13 39 -14 42 0 3 -5 12 -10 20 -5 8 -10 22 -10 30 0 8 -7 15 -15 15 -9 0 -14
8 -12 19 2 11 -1 15 -7 11 -7 -4 -8 0 -4 10 3 10 2 20 -4 24 -5 3 -19 22 -30
41 -22 36 -133 148 -133 134 0 -4 -6 0 -14 11 -8 11 -25 18 -44 17 -18 0 -34
4 -37 9 -8 12 -62 12 -70 -1 -3 -5 -11 -10 -16 -10 -6 0 -7 5 -3 11 3 6 -5 4
-18 -5 -14 -9 -28 -13 -31 -9 -4 3 -7 0 -7 -7 0 -9 -6 -8 -20 5 -49 44 -70
218 -41 336 14 53 13 58 -7 98 -24 45 -27 61 -13 61 11 0 41 -73 41 -100 0
-31 60 -70 108 -70 l42 0 0 100 c0 60 -4 100 -10 100 -5 0 -10 6 -11 13 -1 22
-132 110 -199 133 -36 13 -96 25 -135 28 -64 4 -70 6 -73 28 -2 12 -10 27 -18
31 -8 4 -14 15 -14 22 0 8 -4 15 -10 15 -5 0 -10 9 -10 21 0 11 -4 17 -10 14
-5 -3 -10 3 -10 14 0 11 -6 26 -12 33 -17 17 -19 48 -4 48 25 0 36 -18 34 -51
-3 -28 0 -34 17 -34 11 0 19 6 18 13 -2 6 2 12 7 12 6 0 10 16 10 34 0 28 -5
38 -27 49 -16 7 -27 19 -25 26 2 9 -3 11 -13 8 -8 -4 -15 -1 -15 4 0 6 -9 9
-20 6 -11 -3 -23 -1 -26 5 -3 5 -13 7 -21 4 -9 -4 -13 -1 -10 6 2 7 11 12 20
12 10 -1 14 3 10 9 -4 6 0 8 10 4 10 -3 17 -2 17 3 0 6 5 9 12 7 6 -1 14 6 16
15 2 12 -5 19 -23 24 -33 8 -105 -14 -105 -33 0 -7 -9 -18 -20 -25 -11 -7 -20
-18 -20 -25 0 -6 -7 -18 -15 -26 -8 -8 -19 -46 -24 -83 -5 -38 -12 -79 -15
-91 -3 -13 -8 -31 -10 -40 -9 -38 -27 -76 -51 -107 -14 -18 -25 -38 -25 -43 0
-6 -13 -25 -29 -42 -15 -16 -27 -32 -25 -34 2 -2 -7 -10 -21 -17 -18 -9 -34
-10 -57 -4 -31 9 -33 13 -32 52 1 23 -2 39 -7 37 -14 -9 -99 83 -92 100 3 10
1 15 -8 13 -7 -2 -13 3 -14 10 0 7 -5 16 -10 20 -13 9 -76 116 -94 160 -7 17
-18 32 -24 32 -6 0 -8 3 -4 6 13 14 -24 34 -63 34 -29 0 -39 3 -34 12 5 8 2 9
-9 5 -26 -10 -59 71 -56 136 1 29 6 57 10 62 4 6 8 15 8 20 1 6 5 24 10 40 5
17 12 55 16 85 3 30 11 58 17 61 14 9 24 179 12 188 -5 3 -14 15 -20 26 -6 11
-30 35 -53 53 -49 37 -102 43 -137 14z m1395 -1797 c20 -42 25 -144 12 -248
-13 -92 -80 -332 -88 -310 -2 6 10 69 27 139 38 154 47 271 28 377 -15 81 -6
98 21 42z m187 -91 c41 -87 47 -149 40 -404 -6 -223 -28 -437 -48 -470 -6 -10
-7 2 -4 34 17 147 28 411 22 556 -6 158 -20 246 -55 333 -27 68 8 30 45 -49z
m-342 -16 c-25 -151 -35 -170 -235 -468 -105 -157 -182 -285 -233 -387 -42
-84 -80 -153 -85 -153 -12 0 17 66 97 227 71 141 86 167 232 393 126 196 145
232 185 343 28 79 49 102 39 45z m-1165 -613 c-45 -175 -59 -262 -72 -435
l-12 -155 -33 -3 c-45 -5 -50 16 -24 104 12 41 26 104 32 141 27 193 111 496
131 476 5 -5 -5 -63 -22 -128z m1864 -286 l6 -263 -24 -22 c-14 -13 -25 -34
-25 -49 0 -21 -5 -25 -29 -25 -17 0 -33 5 -36 11 -4 6 -2 39 5 73 6 35 15 124
19 197 7 111 8 120 10 54 1 -44 6 -87 11 -95 5 -8 10 -13 11 -10 1 5 13 153
25 312 4 48 10 86 14 83 4 -2 10 -122 13 -266z"/>
</g>
</svg>
