<?xml version="1.0" standalone="no"?>
<!DOCTYPE svg PUBLIC "-//W3C//DTD SVG 20010904//EN"
 "http://www.w3.org/TR/2001/REC-SVG-20010904/DTD/svg10.dtd">
<svg version="1.0" xmlns="http://www.w3.org/2000/svg"
 width="407.000000pt" height="616.000000pt" viewBox="0 0 407.000000 616.000000"
 preserveAspectRatio="xMidYMid meet">
<metadata>
Created by potrace 1.16, written by Peter Selinger 2001-2019
</metadata>
<g transform="translate(0.000000,616.000000) scale(0.100000,-0.100000)"
fill="#000000" stroke="none">
<path d="M1520 5932 c-50 -3 -146 -30 -210 -59 -42 -18 -51 -26 -40 -33 8 -5
25 -10 37 -10 15 0 23 -7 25 -22 2 -14 12 -24 28 -28 16 -4 26 -14 28 -28 2
-12 15 -30 28 -39 23 -15 26 -15 49 7 14 13 25 34 25 48 0 21 3 23 29 17 31
-7 51 9 33 27 -7 7 -17 6 -32 -2 -12 -6 -25 -9 -28 -5 -12 11 15 40 36 37 14
-2 21 4 26 23 5 21 11 25 29 19 36 -11 78 -47 72 -62 -3 -7 -5 -18 -5 -23 0
-5 -11 -7 -24 -3 -30 7 -76 -33 -76 -66 0 -12 -9 -33 -20 -47 -24 -30 -26 -47
-5 -39 19 7 41 -32 27 -46 -16 -16 -41 -2 -52 27 -6 15 -15 23 -20 20 -6 -4
-17 -2 -24 4 -7 6 -34 15 -60 20 -46 8 -49 7 -82 -25 -19 -19 -34 -40 -34 -47
0 -7 -7 -25 -15 -40 -10 -20 -12 -34 -5 -47 7 -13 6 -19 -5 -24 -8 -3 -15 -12
-15 -20 0 -9 -12 -18 -27 -22 -16 -3 -39 -10 -51 -15 -18 -7 -33 -4 -63 13
-37 21 -39 21 -59 3 -29 -26 -27 -73 4 -81 14 -3 33 -15 43 -26 17 -19 17 -20
-10 -40 -20 -14 -26 -26 -22 -39 4 -11 2 -19 -4 -19 -16 0 -14 -97 2 -107 15
-10 42 -60 42 -82 1 -27 -13 -48 -35 -54 -26 -7 -38 17 -20 38 10 12 9 16 -3
21 -9 3 -20 3 -26 0 -13 -8 -12 -107 0 -123 6 -6 11 -32 12 -57 1 -25 6 -46
11 -46 4 0 6 -10 3 -22 -3 -13 -2 -43 3 -67 7 -38 5 -44 -11 -48 -22 -6 -26
-23 -5 -23 8 0 16 -16 20 -40 5 -31 11 -41 31 -46 14 -3 25 -12 25 -19 0 -7 3
-15 8 -17 4 -1 15 -17 24 -35 20 -38 13 -78 -11 -67 -9 4 -29 7 -46 6 -16 -1
-39 5 -52 13 -28 19 -63 19 -63 1 0 -18 66 -76 85 -76 8 0 15 -6 15 -12 0 -9
3 -9 8 -2 14 20 57 44 79 44 13 0 23 4 23 9 0 5 13 11 29 14 24 5 29 12 34 47
6 49 10 55 33 46 16 -6 15 -39 -2 -98 -4 -13 -1 -16 9 -12 18 7 63 -46 47 -56
-6 -4 -8 -15 -4 -25 6 -15 4 -17 -14 -13 -15 4 -22 2 -22 -8 0 -24 26 -15 80
27 28 22 54 39 56 36 7 -7 -144 -140 -278 -246 -64 -50 -119 -99 -122 -107 -3
-9 -2 -12 5 -9 14 9 110 -14 131 -32 11 -10 18 -11 23 -4 10 18 40 13 61 -10
l18 -20 8 20 c9 25 50 28 68 6 7 -8 18 -15 25 -15 7 0 20 -12 29 -26 19 -27
56 -30 64 -5 3 10 0 12 -11 8 -9 -3 -19 -2 -22 3 -7 11 18 62 39 79 9 8 16 24
16 36 0 23 17 35 50 35 27 0 30 -11 18 -57 -9 -38 -13 -41 -51 -48 l-42 -7 30
-9 c18 -5 32 -5 36 2 3 6 17 7 31 4 18 -5 33 0 55 19 17 14 34 26 37 26 8 0
-4 -52 -16 -67 -6 -8 -2 -11 17 -9 30 4 316 290 381 383 75 106 101 177 69
189 -28 11 -11 93 40 199 14 28 26 65 28 84 3 24 11 37 25 42 11 4 28 19 38
33 20 32 34 25 35 -17 0 -27 2 -29 9 -12 7 17 9 17 9 3 1 -12 9 -18 26 -18 16
0 25 -6 25 -15 0 -8 5 -15 10 -15 6 0 10 -6 10 -14 0 -8 8 -17 18 -19 12 -3
10 -5 -8 -7 -14 -1 -34 -5 -45 -9 -12 -5 5 -7 40 -4 33 2 67 4 75 4 8 0 31 14
50 31 l35 29 -53 -6 c-53 -6 -98 7 -86 26 3 5 1 16 -6 24 -8 10 -8 15 1 21 7
4 17 0 24 -9 7 -10 15 -17 17 -17 10 0 16 40 7 46 -5 3 5 19 21 36 26 26 30
36 25 62 -7 32 -82 119 -99 113 -5 -2 -11 -25 -12 -51 -2 -35 -9 -54 -27 -70
-13 -12 -32 -35 -42 -50 -10 -14 -20 -24 -23 -22 -6 7 25 101 53 160 19 39 22
52 12 67 -20 32 4 35 31 4 15 -17 83 -77 151 -135 67 -58 162 -138 209 -179
48 -40 98 -80 112 -89 14 -9 39 -28 55 -43 32 -29 300 -229 325 -243 28 -16
-45 49 -117 103 -66 50 -95 81 -74 81 5 0 14 -7 21 -15 13 -16 45 -21 35 -6
-3 5 -1 12 4 15 5 4 12 2 16 -4 3 -5 16 -10 28 -10 21 0 21 1 -3 13 -13 7 -28
26 -33 42 -7 25 -3 40 27 90 40 66 60 85 89 85 10 0 33 11 51 25 18 14 36 25
40 25 3 0 13 -18 22 -39 12 -31 21 -40 46 -43 21 -3 32 0 36 11 4 9 7 102 7
206 0 179 -2 196 -29 295 -16 58 -38 114 -48 126 -25 28 -117 74 -147 74 -13
0 -40 -4 -60 -9 -20 -6 -58 -15 -85 -22 -27 -7 -64 -26 -83 -42 -25 -22 -39
-28 -58 -23 -15 4 -38 0 -56 -10 -30 -15 -32 -15 -62 13 -18 15 -35 32 -38 37
-4 5 -14 6 -23 3 -8 -3 -31 0 -50 8 -40 17 -108 26 -100 14 3 -5 -14 -18 -38
-29 -70 -33 -107 -63 -124 -101 -14 -31 -57 -69 -78 -69 -3 0 -6 15 -6 33 -1
17 -7 59 -15 91 -8 33 -12 63 -9 68 3 4 0 8 -6 8 -6 0 -9 4 -5 9 3 5 1 12 -4
16 -5 3 -21 30 -34 59 -29 64 -184 230 -264 283 -49 32 -153 61 -153 42 0 -5
5 -9 11 -9 6 0 9 -6 6 -12 -2 -7 -14 -12 -26 -10 -12 2 -20 -2 -19 -8 2 -7 -5
-17 -15 -23 -14 -10 -20 -9 -27 3 -11 18 -3 31 15 23 10 -3 15 2 15 16 0 12
-3 21 -7 22 -65 9 -206 15 -253 11z m1129 -816 c14 -15 19 -26 12 -31 -17 -10
-13 -50 7 -68 13 -12 17 -26 14 -47 -2 -16 -8 -27 -13 -24 -5 3 -9 0 -9 -5 0
-21 -26 -10 -77 32 -54 43 -69 79 -38 91 8 3 15 15 15 27 0 24 26 48 51 49 8
0 26 -11 38 -24z"/>
<path d="M3386 5411 c19 -49 47 -219 48 -301 1 -104 -9 -252 -20 -288 -10 -33
47 -54 123 -46 32 4 55 3 51 -1 -4 -4 0 -21 10 -37 14 -24 22 -28 52 -26 27 2
34 7 32 21 -4 26 15 20 22 -7 3 -13 19 -37 35 -52 16 -15 32 -42 36 -60 3 -20
13 -35 25 -39 10 -3 21 -14 24 -23 3 -10 19 -26 36 -35 20 -12 30 -26 30 -43
0 -27 15 -32 24 -8 9 24 -31 154 -65 208 -16 27 -28 54 -26 60 3 7 -1 20 -9
31 -8 10 -14 38 -14 61 0 23 -7 60 -15 83 -16 47 -100 148 -151 183 -26 18
-34 30 -34 54 0 17 -4 44 -9 60 -5 16 -12 41 -15 56 -3 14 -17 40 -31 56 -14
16 -28 47 -33 68 l-8 39 -62 1 c-53 0 -62 -2 -56 -15z"/>
<path d="M2613 4879 c9 -5 17 -15 17 -21 0 -6 -7 -5 -17 3 -15 12 -16 12 -10
-5 5 -13 -2 -29 -25 -55 -26 -30 -29 -37 -15 -39 9 -2 24 4 33 13 9 9 19 13
22 10 3 -3 -3 -11 -13 -19 -16 -12 -17 -16 -6 -30 18 -22 30 -20 24 4 -4 14 0
20 11 20 9 0 16 -7 16 -15 0 -9 9 -15 21 -15 13 0 19 -5 15 -12 -3 -7 -9 -21
-12 -30 -4 -11 -16 -18 -30 -18 -13 0 -24 -4 -24 -10 0 -5 -7 -10 -15 -10 -8
0 -15 4 -15 9 0 16 -59 9 -65 -7 -3 -8 -11 -12 -18 -9 -8 3 -20 1 -28 -4 -11
-7 -11 -9 4 -9 9 0 17 -7 17 -15 0 -8 -8 -15 -17 -15 -17 -1 -17 -1 0 -14 18
-14 11 -26 -25 -39 -22 -8 -23 -36 -3 -43 10 -4 13 -13 10 -25 -4 -11 -2 -19
4 -19 6 0 11 -7 11 -15 0 -20 -7 -19 -32 5 -30 27 -35 17 -12 -25 20 -38 34
-45 34 -18 0 15 1 15 18 0 14 -13 21 -14 30 -5 17 17 15 67 -2 74 -17 7 -28
42 -15 50 5 3 9 13 9 23 0 14 9 18 40 19 30 1 40 -2 40 -13 0 -9 6 -18 14 -21
8 -3 13 -11 10 -18 -2 -6 9 -19 26 -29 16 -10 30 -25 30 -33 0 -8 10 -14 25
-14 14 0 25 4 25 8 0 5 -11 19 -25 32 -14 13 -25 28 -25 34 0 5 -12 23 -27 38
-30 31 -21 36 23 13 16 -8 37 -15 48 -15 15 0 16 -3 7 -14 -10 -12 -8 -17 9
-26 13 -7 19 -17 16 -27 -4 -9 1 -17 14 -20 15 -4 19 -11 15 -24 -9 -26 19
-15 39 16 21 32 20 36 -8 29 -18 -4 -27 -1 -36 15 -9 19 -8 21 13 21 16 0 23
6 24 20 1 14 -4 20 -18 20 -30 0 -22 17 12 24 16 3 37 13 45 21 9 8 19 13 24
10 5 -3 11 4 15 15 6 18 8 18 21 5 18 -17 34 -20 34 -5 0 15 -94 80 -100 70
-3 -5 -18 -1 -34 9 -17 12 -23 20 -15 23 19 6 4 24 -59 70 -31 23 -59 44 -62
48 -10 13 -55 40 -65 40 -5 0 -2 -5 8 -11z"/>
<path d="M3241 4777 c-5 -12 -12 -45 -16 -74 -6 -44 -4 -54 14 -72 12 -12 21
-25 21 -31 0 -5 6 -13 13 -17 22 -13 54 -66 60 -99 3 -18 9 -43 13 -58 5 -22
3 -26 -16 -26 -12 0 -34 8 -48 18 -52 36 -56 34 -12 -7 25 -22 65 -53 90 -67
25 -15 61 -38 80 -52 25 -17 20 -11 -15 22 l-50 46 49 -7 c44 -5 49 -4 43 11
-4 10 -7 19 -7 22 0 2 -8 1 -17 -3 -17 -6 -17 -5 0 14 17 20 17 20 -6 16 -29
-6 -41 9 -32 38 5 15 12 18 27 13 20 -6 20 -5 -4 37 -14 24 -32 70 -39 102
-10 44 -18 57 -32 57 -10 0 -15 5 -12 10 4 6 -1 24 -9 41 -17 35 -12 56 9 39
8 -7 19 -9 25 -5 15 9 12 25 -4 19 -7 -3 -36 4 -65 15 l-52 19 -8 -21z"/>
<path d="M2105 4357 c-10 -17 -29 -50 -40 -72 -44 -82 -80 -142 -127 -208 -26
-37 -48 -71 -48 -76 0 -5 -7 -14 -15 -21 -8 -7 -15 -23 -15 -35 0 -13 -16 -46
-35 -74 -19 -28 -45 -73 -58 -101 -13 -28 -26 -47 -30 -44 -4 4 -7 2 -7 -4 0
-18 41 -36 50 -22 6 9 9 9 15 0 4 -6 -1 -17 -11 -24 -10 -8 -15 -20 -11 -29 3
-8 -3 -23 -14 -33 -11 -10 -17 -24 -14 -32 3 -8 -3 -21 -15 -29 -11 -8 -20
-23 -20 -33 0 -12 -8 -20 -22 -22 -16 -2 -22 -9 -20 -21 2 -11 -7 -22 -25 -30
-43 -19 -63 -39 -63 -64 0 -13 -4 -23 -10 -23 -14 0 0 -63 18 -77 9 -7 12 -13
6 -14 -5 0 1 -4 14 -10 26 -10 21 -29 -8 -29 -13 0 -17 -5 -13 -20 3 -11 -6
-39 -22 -65 -22 -38 -26 -56 -23 -98 l3 -52 -32 1 c-38 0 -39 -3 -17 -28 16
-17 15 -20 -8 -55 -30 -45 -52 -109 -43 -123 3 -5 1 -10 -4 -10 -6 0 -11 -4
-11 -10 0 -5 7 -10 15 -10 20 0 19 -10 -2 -25 -13 -10 -14 -17 -5 -43 8 -24 8
-33 -3 -42 -8 -6 -14 -19 -14 -28 0 -9 -4 -35 -10 -57 -13 -51 -14 -78 -1 -70
6 3 10 3 10 0 0 -8 -60 -117 -71 -129 -5 -6 -9 -14 -9 -20 0 -5 15 5 34 23
l34 33 31 -23 c23 -17 31 -30 29 -48 -3 -27 -28 -42 -28 -17 0 20 -24 21 -40
1 -10 -12 -9 -16 4 -21 19 -7 21 -30 4 -40 -7 -4 -28 -10 -48 -14 -21 -3 -35
-11 -35 -20 0 -21 46 -29 72 -13 11 8 24 10 27 5 8 -14 -53 -82 -75 -82 -10 0
-19 -5 -19 -12 0 -6 3 -8 6 -5 4 3 15 2 25 -4 18 -9 18 -10 -1 -41 -10 -18
-29 -38 -42 -45 -21 -11 -22 -12 -3 -13 17 -1 16 -3 -6 -13 -14 -7 -37 -24
-51 -39 -29 -32 -36 -35 -34 -11 0 11 -6 17 -16 17 -10 -1 -28 -2 -41 -3 -15
-1 -26 -11 -34 -31 -6 -16 -17 -30 -23 -30 -9 0 -10 3 -1 14 6 7 9 21 5 30 -3
9 -1 23 6 31 14 16 5 35 -16 35 -8 0 -14 7 -14 15 0 8 6 15 14 15 8 0 17 7 20
16 12 30 6 33 -20 9 -15 -14 -32 -25 -37 -25 -6 0 -1 -10 11 -23 23 -24 31
-90 12 -102 -6 -3 -10 -19 -10 -34 0 -29 -38 -89 -55 -87 -14 1 -18 -40 -7
-73 5 -15 6 -34 2 -42 -4 -8 -10 -27 -14 -42 -6 -26 -5 -28 15 -22 20 7 21 5
15 -27 -4 -23 -1 -40 9 -53 8 -11 15 -15 15 -7 0 17 20 15 20 -3 0 -24 20 -17
21 8 l0 22 10 -23 c10 -26 29 -21 29 9 0 10 5 19 11 19 8 0 9 -13 5 -42 -8
-51 -16 -64 -28 -47 -6 9 -7 5 -2 -13 9 -40 -54 -132 -83 -121 -10 4 -14 0
-12 -13 4 -29 -22 -74 -43 -74 -24 0 -34 -27 -20 -51 7 -10 12 -27 12 -37 0
-10 5 -23 11 -29 6 -6 12 -17 13 -24 2 -8 6 -21 9 -29 15 -40 14 -60 -1 -69
-13 -7 -14 -16 -7 -46 10 -38 29 -45 29 -10 1 11 3 22 6 23 8 6 64 -22 77 -38
9 -12 14 -13 24 -2 10 9 10 15 2 23 -8 8 -6 16 9 31 22 22 38 17 18 -7 -10
-13 -9 -15 9 -15 12 0 21 6 21 15 0 14 12 20 34 16 4 -1 13 2 20 7 25 20 56
20 81 0 21 -16 23 -23 14 -39 -5 -11 -22 -25 -37 -32 -30 -13 -59 -47 -53 -62
2 -5 4 -32 5 -60 1 -44 4 -50 26 -55 21 -5 26 -13 30 -52 3 -26 13 -55 23 -66
9 -10 17 -23 17 -29 0 -24 103 -56 112 -35 2 5 30 26 63 47 33 21 80 54 105
75 25 20 72 53 106 73 33 20 68 45 78 56 18 19 18 22 2 56 -19 39 -16 78 10
169 22 76 18 139 -12 198 -57 112 -1 197 158 245 52 15 106 12 192 -13 27 -8
51 -12 54 -10 2 3 -19 75 -47 162 -29 86 -56 191 -62 233 -21 159 -27 226 -22
234 2 4 -1 14 -7 22 -7 8 -10 28 -8 45 3 16 1 30 -4 30 -4 0 -8 18 -8 40 0 22
-5 40 -11 40 -6 0 -8 9 -4 21 5 14 3 19 -3 15 -7 -4 -13 8 -17 31 -3 21 -11
58 -17 83 -15 66 -28 442 -17 528 11 91 20 129 67 262 72 208 165 331 297 395
44 21 61 23 143 20 103 -5 142 5 142 34 0 10 7 25 16 32 15 12 16 11 10 -9
-12 -36 1 -57 34 -60 19 -1 30 2 30 10 0 7 14 33 30 57 17 24 30 56 30 70 1
14 7 37 15 51 21 37 18 60 -4 25 -18 -30 -76 -85 -89 -85 -17 0 -82 63 -76 72
4 7 2 8 -4 4 -6 -4 -37 17 -71 46 -69 62 -145 118 -181 134 -38 18 -84 70 -76
89 3 9 2 13 -4 10 -6 -3 -10 2 -10 12 0 31 -50 171 -72 198 -16 20 -85 65
-100 65 -2 0 -12 -15 -23 -33z m-394 -1419 c-12 -12 -21 -26 -21 -32 0 -5 9 0
21 12 11 12 26 19 32 16 52 -30 99 -68 89 -72 -7 -2 -24 3 -37 12 -14 9 -25
12 -25 7 0 -5 7 -11 15 -15 43 -16 -19 -59 -107 -72 -24 -4 -49 -11 -56 -17
-27 -22 -23 5 13 70 47 86 88 140 93 125 2 -6 -6 -21 -17 -34z"/>
<path d="M1050 4295 c-7 -8 -10 -24 -7 -36 6 -23 -1 -49 -13 -49 -4 0 -10 10
-13 22 -6 21 -7 21 -40 -13 -29 -29 -33 -38 -26 -62 12 -44 49 -98 62 -90 20
11 147 115 153 125 8 12 -16 69 -27 63 -4 -3 -22 8 -39 25 -36 35 -34 34 -50
15z"/>
<path d="M1149 3965 c-1 -5 -1 -14 0 -19 1 -5 -3 -41 -9 -79 -20 -117 18 -199
97 -204 l35 -2 -8 47 c-8 50 -8 53 2 121 6 41 5 44 -15 38 -11 -3 -21 -2 -21
3 0 4 -13 10 -30 14 -25 4 -30 10 -30 33 0 27 -18 68 -21 48z"/>
<path d="M3414 3642 c-25 -17 -39 -80 -39 -175 0 -93 1 -99 25 -117 22 -17 23
-22 13 -39 -7 -12 -13 -28 -13 -36 0 -8 -4 -15 -10 -15 -5 0 -10 -4 -10 -10 0
-18 17 -10 35 16 9 14 18 44 19 67 3 47 46 130 46 90 0 -15 6 -23 18 -23 15
-1 15 -2 -3 -16 -19 -16 -19 -16 10 -10 17 4 38 7 48 7 16 0 15 4 -8 35 -28
37 -28 38 8 25 13 -5 29 -6 37 -1 16 10 -87 78 -131 87 -40 8 -53 35 -39 79
13 37 11 47 -6 36z"/>
<path d="M797 3531 c-20 -22 -43 -51 -52 -65 -10 -14 -23 -26 -29 -26 -7 0
-13 -6 -13 -12 0 -18 -112 -178 -125 -178 -12 0 -43 -24 -110 -85 -27 -25 -56
-45 -63 -45 -8 0 -19 -8 -25 -17 -9 -15 -10 -14 -5 7 4 14 3 20 -2 13 -4 -6
-6 -145 -4 -310 4 -370 4 -373 15 -373 4 0 6 -13 4 -30 -3 -16 -2 -28 1 -25 8
9 32 -58 37 -105 5 -57 50 -153 59 -128 8 19 46 18 69 -2 9 -7 16 -27 16 -46
0 -18 5 -36 10 -39 15 -9 12 -45 -3 -45 -7 0 -23 -11 -35 -24 l-21 -25 29
-117 c16 -64 26 -124 23 -133 -4 -14 -3 -14 7 -1 10 13 11 11 7 -8 -3 -12 -1
-20 4 -17 4 3 15 -9 24 -26 16 -29 20 -31 57 -26 53 7 60 15 63 79 1 29 5 65
9 79 5 18 3 29 -9 39 -11 9 -12 15 -5 20 6 4 14 25 17 46 5 37 3 39 -22 41
-37 2 -115 78 -115 113 -1 14 -7 36 -15 50 -8 14 -14 38 -15 53 0 16 -5 38
-11 49 -6 11 -11 37 -11 57 0 20 -4 44 -9 54 -8 13 -4 20 17 29 22 10 28 10
38 -5 12 -15 15 -14 38 11 21 22 24 34 21 65 -4 29 -2 37 11 37 9 0 16 7 16
15 0 8 -5 15 -11 15 -5 0 -7 4 -4 10 3 5 1 27 -4 47 -5 21 -12 86 -15 144 -6
117 -10 106 76 183 17 15 25 31 22 40 -7 17 21 61 38 61 19 0 37 121 43 278 2
76 7 142 10 147 3 5 8 40 11 76 4 59 3 66 -11 54 -17 -15 -19 -7 -5 21 18 32
-5 21 -43 -20z"/>
<path d="M3770 3168 c0 -9 -7 -18 -15 -22 -8 -3 -15 -16 -15 -30 0 -13 -7 -26
-15 -30 -22 -8 -8 -67 23 -93 l25 -21 17 21 c15 18 20 19 34 8 13 -11 17 -11
22 3 3 9 12 16 20 16 19 0 18 27 -2 38 -14 8 -14 12 -3 30 19 30 -2 73 -31 65
-12 -3 -29 2 -40 12 -17 15 -20 16 -20 3z"/>
<path d="M894 2034 c5 -13 2 -15 -14 -11 -25 6 -27 -18 -2 -32 16 -10 16 -10
-2 -11 -14 0 -17 -5 -12 -25 6 -25 -8 -36 -17 -12 -3 7 -6 5 -6 -6 -1 -9 5
-26 11 -37 10 -16 10 -23 -4 -36 -20 -20 -41 -9 -33 17 5 14 2 19 -13 19 -35
0 -43 -51 -14 -88 13 -16 30 -24 62 -26 31 -2 49 -10 62 -26 14 -18 22 -20 30
-12 9 9 7 17 -10 32 -25 23 -31 65 -8 57 25 -10 28 6 4 20 l-23 12 28 1 c15 0
28 -4 28 -10 1 -5 2 -15 3 -22 0 -6 7 -13 14 -15 14 -5 16 21 2 46 -6 12 -6
30 0 51 11 37 8 44 -38 94 -34 38 -59 48 -48 20z"/>
</g>
</svg>
