<?xml version="1.0" standalone="no"?>
<!DOCTYPE svg PUBLIC "-//W3C//DTD SVG 20010904//EN"
 "http://www.w3.org/TR/2001/REC-SVG-20010904/DTD/svg10.dtd">
<svg version="1.0" xmlns="http://www.w3.org/2000/svg"
 width="327.000000pt" height="360.000000pt" viewBox="0 0 327.000000 360.000000"
 preserveAspectRatio="xMidYMid meet">
<metadata>
Created by potrace 1.16, written by Peter Selinger 2001-2019
</metadata>
<g transform="translate(0.000000,360.000000) scale(0.100000,-0.100000)"
fill="#000000" stroke="none">
<path d="M1288 3403 c-10 -2 -18 -9 -18 -14 0 -6 -4 -7 -10 -4 -5 3 -10 1 -10
-4 0 -6 -5 -11 -10 -11 -11 0 -63 -34 -88 -58 -8 -7 -18 -10 -23 -7 -5 4 -9 1
-9 -5 0 -6 -4 -8 -10 -5 -5 3 -10 1 -10 -5 0 -6 -20 -20 -45 -31 -25 -11 -45
-25 -45 -31 0 -6 -3 -9 -6 -5 -3 3 -18 -5 -32 -19 -15 -13 -32 -24 -39 -24 -7
0 -13 -5 -13 -11 0 -5 -4 -7 -10 -4 -5 3 -10 3 -10 -2 0 -4 -37 -9 -81 -11
-45 -2 -102 -10 -128 -19 -25 -8 -52 -16 -60 -18 -28 -4 -71 -59 -85 -109 -14
-50 -41 -198 -70 -386 -8 -52 -24 -151 -35 -220 -11 -69 -27 -179 -36 -245 -9
-66 -23 -160 -31 -210 -9 -49 -19 -124 -24 -165 -4 -41 -15 -124 -24 -185 -9
-60 -23 -162 -32 -225 -8 -63 -24 -176 -34 -250 -11 -74 -26 -191 -35 -260 -9
-69 -22 -170 -30 -224 -9 -55 -12 -103 -8 -106 5 -3 64 -17 133 -29 69 -13
153 -29 187 -37 34 -8 75 -14 91 -14 31 0 37 14 48 100 2 14 8 45 14 70 7 25
16 68 20 95 16 87 20 109 30 140 5 17 11 46 13 65 3 19 9 53 15 75 6 22 13 60
16 85 3 25 11 70 19 100 8 30 15 62 15 70 1 8 4 29 7 45 3 17 7 39 8 50 1 11
6 23 10 26 5 3 10 26 12 50 2 24 8 59 14 77 5 18 10 35 10 37 0 3 2 18 5 33 3
15 8 45 11 66 3 22 13 64 21 93 9 30 14 57 11 60 -3 2 3 36 14 74 10 38 19 79
19 91 0 20 2 19 14 -7 48 -111 60 -170 61 -295 0 -69 -4 -134 -9 -145 -5 -11
-10 -22 -11 -25 -1 -3 -7 -18 -13 -33 -7 -16 -12 -34 -12 -41 0 -6 -4 -16 -10
-22 -5 -5 -11 -20 -13 -32 -2 -13 -11 -31 -20 -42 -9 -10 -21 -37 -28 -59 -7
-23 -16 -41 -20 -41 -5 0 -11 -17 -15 -37 -4 -21 -10 -42 -14 -48 -5 -5 -16
-55 -25 -110 -10 -55 -19 -103 -22 -108 -2 -4 -11 -121 -19 -260 -14 -240 -14
-252 3 -264 10 -7 23 -16 29 -21 5 -5 28 -17 50 -26 21 -10 48 -23 59 -28 65
-35 120 -58 139 -58 9 0 16 -5 16 -10 0 -6 3 -9 8 -8 4 1 24 -6 45 -15 21 -9
41 -16 45 -15 4 1 14 -1 22 -4 90 -33 207 -34 257 -1 15 10 24 12 20 6 -16
-25 3 -12 48 34 25 25 51 55 56 65 6 10 14 16 20 13 5 -4 9 3 9 14 0 12 5 21
10 21 6 0 10 6 10 14 0 7 7 19 15 26 8 7 12 16 9 21 -3 5 -1 9 5 9 6 0 8 7 5
15 -4 8 -3 15 0 15 7 0 30 -51 28 -62 -1 -5 3 -8 9 -8 5 0 15 -13 20 -30 6
-16 15 -30 20 -30 5 0 9 -4 9 -9 0 -12 78 -89 85 -83 3 3 5 0 5 -6 0 -7 7 -12
15 -12 8 0 15 -5 15 -11 0 -5 5 -7 10 -4 6 3 10 2 10 -3 0 -31 238 -14 312 23
17 8 37 15 44 15 7 0 28 9 47 20 19 12 43 22 53 25 38 7 84 32 77 40 -5 4 -1
6 7 3 8 -3 35 8 60 24 25 15 53 31 63 34 15 5 17 20 17 103 0 88 -23 353 -34
390 -3 9 -7 43 -10 76 -3 33 -11 76 -17 95 -5 19 -13 49 -16 65 -3 17 -8 32
-11 35 -4 3 -8 12 -9 20 -3 28 -34 102 -47 116 -8 7 -22 37 -32 66 -9 29 -20
55 -23 58 -6 5 -12 25 -47 155 -18 65 -14 132 12 223 9 29 14 56 11 59 -3 2 3
23 13 46 10 23 16 45 14 49 -3 4 0 8 6 8 6 0 8 4 5 10 -3 5 -1 18 4 27 9 16
10 15 10 -7 0 -14 3 -38 6 -55 15 -75 46 -219 66 -310 12 -55 23 -109 24 -120
1 -20 6 -45 45 -230 19 -88 28 -133 70 -345 25 -122 55 -267 76 -361 7 -37 14
-74 14 -83 0 -14 8 -16 53 -11 28 3 75 11 102 18 28 8 55 12 62 10 6 -2 48 5
93 16 46 12 93 21 106 21 22 0 24 4 24 53 0 28 -7 94 -15 146 -9 51 -18 121
-21 155 -2 33 -11 93 -19 132 -8 38 -15 86 -16 105 -1 37 -30 239 -57 409 -9
58 -16 114 -14 124 1 11 -4 56 -13 100 -8 45 -17 106 -20 136 -3 30 -13 98
-22 150 -9 52 -16 99 -15 103 2 5 -6 61 -17 125 -11 65 -24 149 -30 187 -6 39
-13 81 -16 95 -3 14 -8 50 -11 80 -3 30 -12 83 -20 117 -7 34 -16 86 -19 116
-3 30 -12 73 -20 97 -8 23 -15 55 -15 71 0 56 -87 110 -200 125 -148 19 -175
24 -178 34 -2 5 -8 8 -12 5 -5 -3 -18 2 -28 12 -10 10 -23 19 -28 20 -9 2
-171 105 -190 121 -5 5 -27 17 -47 27 -20 9 -35 21 -32 25 3 4 -8 10 -23 13
-32 7 -719 7 -744 0z m674 -90 c-31 -63 -90 -194 -114 -253 -6 -14 -19 -42
-30 -62 -10 -21 -21 -46 -23 -56 -1 -9 -17 -46 -34 -82 -17 -35 -31 -69 -31
-76 0 -7 -11 -30 -25 -50 -14 -21 -28 -54 -31 -76 -7 -42 -24 -52 -24 -13 0
14 -5 25 -11 25 -6 0 -9 6 -6 14 3 8 2 16 -4 18 -5 2 -12 16 -15 32 -2 15 -11
35 -19 43 -14 13 -19 28 -16 46 0 4 -3 7 -9 7 -5 0 -10 8 -10 18 0 10 -3 22
-7 26 -8 8 -9 13 -12 42 0 8 -6 12 -12 8 -7 -4 -10 -1 -7 7 3 8 -1 20 -9 27
-7 7 -13 25 -13 38 0 14 -4 22 -10 19 -6 -4 -10 5 -10 19 0 14 -4 26 -10 26
-5 0 -16 22 -24 49 -8 27 -22 61 -31 75 -10 14 -13 26 -9 26 5 0 5 4 -1 8 -17
12 -36 52 -30 62 4 6 1 10 -5 10 -6 0 -8 5 -5 10 3 6 1 10 -4 10 -6 0 -11 5
-11 10 0 6 110 10 310 10 292 0 310 -1 302 -17z"/>
</g>
</svg>
